# Blender 4.5.5 LTS
# www.blender.org
mtllib Untitled.mtl
o short_sword_tex
v 0.235516 -3.959420 0.000000
v 0.117758 -3.959420 0.203963
v -0.117758 -3.959420 0.203963
v -0.235516 -3.959420 0.000000
v -0.117758 -3.959420 -0.203963
v 0.117758 -3.959420 -0.203963
v 0.339360 -3.672000 0.000000
v 0.169680 -3.672000 0.293894
v -0.169680 -3.672000 0.293894
v -0.339360 -3.672000 0.000000
v -0.169680 -3.672000 -0.293894
v 0.169680 -3.672000 -0.293894
v 0.235516 -3.414290 0.000000
v 0.117758 -3.414290 0.203963
v -0.117758 -3.414290 0.203963
v -0.235516 -3.414290 0.000000
v -0.117758 -3.414290 -0.203963
v 0.117758 -3.414290 -0.203963
v 0.235516 -2.021430 0.000000
v 0.117758 -2.021430 0.203963
v -0.117758 -2.021430 0.203963
v -0.235516 -2.021430 0.000000
v -0.117758 -2.021430 -0.203963
v 0.117758 -2.021430 -0.203963
v 0.339360 -1.871000 0.000000
v 0.169680 -1.871000 0.293894
v -0.169680 -1.871000 0.293894
v -0.339360 -1.871000 0.000000
v -0.169680 -1.871000 -0.293894
v 0.169680 -1.871000 -0.293894
v 0.221796 -1.474770 0.099587
v -0.024653 -1.474770 0.241874
v -0.221796 -1.474770 -0.099587
v 0.024653 -1.474770 -0.241874
v 0.446747 -1.871000 -0.062000
v 0.446747 -1.545790 -0.062000
v 0.277067 -1.545790 -0.355894
v 0.277067 -1.871000 -0.355894
v -0.446747 -1.871000 0.062000
v -0.446747 -1.545790 0.062000
v -0.277067 -1.545790 0.355894
v -0.277067 -1.871000 0.355894
v 0.751786 -1.523380 -0.529657
v 0.834590 -1.523380 -0.386237
v 0.834590 -1.361420 -0.386237
v 0.751786 -1.361420 -0.529657
v -0.751786 -1.523380 0.529657
v -0.834590 -1.523380 0.386237
v -0.834590 -1.361420 0.386237
v -0.751786 -1.361420 0.529657
v 0.974971 -1.137810 -0.611089
v 0.974971 -1.234980 -0.611089
v 1.016700 -1.234980 -0.538805
v 1.016700 -1.137810 -0.538805
v -0.974971 -1.137810 0.611089
v -0.974971 -1.234980 0.611089
v -1.016700 -1.234980 0.538805
v -1.016700 -1.137810 0.538805
v 0.254520 -1.545790 -0.146947
v -0.254520 -1.545790 0.146947
v 0.098571 -1.474770 0.170730
v -0.098571 -1.474770 -0.170730
v 0.254520 3.318210 -0.146947
v -0.254520 3.318210 0.146947
v 0.254520 -1.298790 -0.146947
v 0.166796 -1.227770 0.004324
v 0.043571 -1.227770 0.075468
v -0.079653 -1.227770 0.146611
v -0.254520 -1.298790 0.146947
v -0.166796 -1.227770 -0.004324
v -0.043571 -1.227770 -0.075468
v 0.079653 -1.227770 -0.146611
v 0.216342 0.140710 -0.124905
v 0.141776 0.211730 0.003675
v 0.037036 0.215730 0.064148
v -0.067705 0.211730 0.124620
v -0.216342 0.140710 0.124905
v -0.141776 0.211730 -0.003675
v -0.037036 0.215730 -0.064148
v 0.067705 0.211730 -0.124620
v 0.254520 1.432460 -0.146947
v 0.166796 1.503480 0.004324
v 0.043571 1.509480 0.075468
v -0.079653 1.503480 0.146611
v -0.254520 1.432460 0.146947
v -0.166796 1.503480 -0.004324
v -0.043571 1.509480 -0.075468
v 0.079653 1.503480 -0.146611
v 0.000000 4.782030 -0.000000
v -0.142798 4.445060 0.082444
v 0.142798 4.445060 -0.082444
v -0.039827 3.142750 0.073306
v 0.083398 3.142750 0.002162
v 0.039827 3.142750 -0.073306
v -0.083398 3.142750 -0.002162
v -0.198659 3.881640 0.114696
v 0.198659 3.881640 -0.114696
v -0.010954 3.962900 0.054527
v 0.052698 3.962900 0.017777
v 0.010954 3.962900 -0.054527
v -0.052698 3.962900 -0.017777
vn -0.0000 -1.0000 -0.0000
vn 0.8265 -0.2986 0.4772
vn -0.0000 -0.2986 0.9544
vn -0.8265 -0.2986 0.4772
vn -0.8265 -0.2986 -0.4772
vn -0.0000 -0.2986 -0.9544
vn 0.8265 -0.2986 -0.4772
vn 0.8177 0.3295 0.4721
vn -0.0000 0.3295 0.9442
vn -0.8177 0.3295 0.4721
vn -0.8177 0.3295 -0.4721
vn -0.0000 0.3295 -0.9442
vn 0.8177 0.3295 -0.4721
vn 0.8660 -0.0000 0.5000
vn -0.0000 -0.0000 1.0000
vn -0.8660 -0.0000 0.5000
vn -0.8660 -0.0000 -0.5000
vn -0.0000 -0.0000 -1.0000
vn 0.8660 -0.0000 -0.5000
vn 0.7433 -0.5131 0.4292
vn -0.0000 -0.5131 0.8583
vn -0.7433 -0.5131 0.4292
vn -0.7433 -0.5131 -0.4292
vn -0.0000 -0.5131 -0.8583
vn 0.7433 -0.5131 -0.4292
vn 0.1153 0.9585 -0.2608
vn 0.8754 0.3308 0.3524
vn 0.9913 -0.0000 0.1316
vn 0.8587 0.1302 0.4957
vn 0.4706 0.3378 0.8151
vn -0.2835 0.9585 -0.0306
vn 0.4568 0.4068 0.7911
vn -0.1153 0.9585 0.2608
vn -0.8754 0.3308 -0.3524
vn -0.9913 -0.0000 -0.1316
vn -0.8587 0.1302 -0.4957
vn -0.4706 0.3378 -0.8151
vn 0.2835 0.9585 0.0306
vn -0.4568 0.4068 -0.7911
vn 0.4988 -0.0691 0.8640
vn 0.5834 -0.0000 0.8122
vn -0.4195 -0.0344 -0.9071
vn -0.5000 -0.0000 -0.8660
vn -0.0000 1.0000 -0.0000
vn -0.4988 -0.0691 -0.8640
vn -0.5834 -0.0000 -0.8122
vn 0.4195 -0.0344 0.9071
vn 0.5000 -0.0000 0.8660
vn 0.4957 -0.8200 -0.2862
vn 0.6414 -0.0000 0.7672
vn -0.3007 0.9378 0.1736
vn -0.3437 -0.0000 -0.9391
vn -0.4957 -0.8200 0.2862
vn -0.6414 -0.0000 -0.7672
vn 0.3007 0.9378 -0.1736
vn 0.3437 -0.0000 0.9391
vn -0.3428 -0.0000 -0.9394
vn 0.6725 -0.6301 -0.3883
vn 0.6725 -0.6301 -0.3882
vn 0.6422 -0.0000 0.7665
vn -0.5983 0.7230 0.3454
vn 0.3428 -0.0000 0.9394
vn -0.6725 -0.6301 0.3883
vn -0.6725 -0.6301 0.3882
vn -0.6422 -0.0000 -0.7665
vn 0.5983 0.7230 -0.3454
vn -0.0019 -0.0000 -1.0000
vn 0.4328 0.2389 -0.8693
vn 0.0019 -0.0000 1.0000
vn -0.4328 0.2389 0.8693
vn 0.4567 0.4068 0.7911
vn -0.0000 0.2968 0.9549
vn -0.4567 0.4068 -0.7911
vn -0.0000 0.2968 -0.9549
vn -0.2952 0.0254 -0.9551
vn -0.3317 0.0099 -0.9433
vn 0.2952 0.0254 0.9551
vn 0.3317 0.0099 0.9433
vn 0.0055 0.0155 -0.9999
vn 0.0043 0.0153 -0.9999
vn 0.8686 0.0153 0.4953
vn 0.8681 0.0154 0.4962
vn 0.5002 0.0091 0.8658
vn 0.5000 0.0091 0.8660
vn 0.4997 0.0091 0.8661
vn -0.0055 0.0155 0.9999
vn -0.0043 0.0153 0.9999
vn -0.8686 0.0153 -0.4953
vn -0.8681 0.0154 -0.4962
vn -0.5002 0.0091 -0.8658
vn -0.5000 0.0091 -0.8660
vn -0.4997 0.0091 -0.8661
vn -0.0087 -0.0168 -0.9998
vn -0.0100 -0.0169 -0.9998
vn 0.8615 -0.0169 0.5075
vn 0.8609 -0.0168 0.5085
vn 0.4996 -0.0101 0.8662
vn 0.4997 -0.0101 0.8661
vn 0.5003 -0.0101 0.8658
vn 0.0087 -0.0168 0.9998
vn 0.0100 -0.0169 0.9998
vn -0.8615 -0.0169 -0.5075
vn -0.8609 -0.0168 -0.5085
vn -0.4996 -0.0101 -0.8662
vn -0.4997 -0.0101 -0.8661
vn -0.5003 -0.0101 -0.8658
vn -0.3245 -0.0000 -0.9459
vn 0.0164 0.0451 -0.9988
vn 0.6369 0.0334 0.7702
vn 0.8651 -0.0000 0.5017
vn 0.5008 0.0266 0.8652
vn 0.4998 0.0267 0.8657
vn 0.4988 0.0266 0.8663
vn 0.3245 -0.0000 0.9459
vn -0.0164 0.0451 0.9988
vn -0.6369 0.0334 -0.7702
vn -0.8651 -0.0000 -0.5017
vn -0.5008 0.0266 -0.8652
vn -0.4998 0.0267 -0.8657
vn -0.4988 0.0266 -0.8663
vn 0.2811 0.0600 0.9578
vn -0.2811 0.0600 -0.9578
vn 0.4994 0.0509 0.8649
vn -0.4994 0.0509 -0.8649
vn -0.6796 0.0254 -0.7332
vn -0.5945 0.0557 -0.8022
vn 0.6796 0.0254 0.7332
vn 0.5945 0.0557 0.8022
vn 0.5000 0.0022 0.8660
vn 0.6754 0.0112 0.7373
vn 0.6450 0.0202 0.7640
vn -0.5000 0.0022 -0.8660
vn -0.6754 0.0112 -0.7373
vn -0.6450 0.0202 -0.7640
vt 0.517590 0.228315
vt 0.545166 0.271589
vt 0.474390 0.382653
vt 0.523566 0.348757
vt 0.446814 0.339379
vt 0.468413 0.262210
vt 0.089455 0.015964
vt 0.089455 0.084309
vt 0.033405 0.015964
vt 0.008692 0.084309
vt 0.264701 0.015239
vt 0.278902 0.084721
vt 0.200287 0.015239
vt 0.186086 0.084721
vt 0.145922 0.017748
vt 0.170635 0.086093
vt 0.089872 0.017748
vt 0.089872 0.086093
vt 0.033823 0.017748
vt 0.009109 0.086093
vt 0.264401 0.015240
vt 0.278602 0.084720
vt 0.199986 0.015240
vt 0.185785 0.084720
vt 0.145505 0.015964
vt 0.170218 0.084309
vt 0.089455 0.082691
vt 0.089455 0.143971
vt 0.008692 0.082691
vt 0.033405 0.143971
vt 0.264701 0.147020
vt 0.200287 0.147020
vt 0.170635 0.081238
vt 0.145922 0.142518
vt 0.089872 0.081238
vt 0.089872 0.142518
vt 0.009109 0.081238
vt 0.033823 0.142518
vt 0.264401 0.147019
vt 0.199986 0.147019
vt 0.170218 0.082691
vt 0.145505 0.143971
vt 0.132378 0.161417
vt 0.132378 0.497819
vt 0.075908 0.161417
vt 0.075908 0.497819
vt 0.264701 0.163201
vt 0.264701 0.499910
vt 0.200287 0.163201
vt 0.200287 0.499910
vt 0.189268 0.161586
vt 0.189268 0.497987
vt 0.132798 0.161586
vt 0.132798 0.497987
vt 0.076328 0.161586
vt 0.076328 0.497987
vt 0.264401 0.163200
vt 0.264401 0.499910
vt 0.199986 0.163200
vt 0.199986 0.499910
vt 0.188848 0.161417
vt 0.188848 0.497819
vt 0.118046 0.860840
vt 0.118046 0.896611
vt 0.061997 0.860840
vt 0.037283 0.896611
vt 0.292280 0.859687
vt 0.306481 0.896052
vt 0.227866 0.859687
vt 0.213665 0.896052
vt 0.173501 0.861006
vt 0.198214 0.896776
vt 0.117451 0.861006
vt 0.117451 0.896776
vt 0.061402 0.861006
vt 0.036688 0.896776
vt 0.291980 0.859687
vt 0.306181 0.896052
vt 0.227565 0.859687
vt 0.213364 0.896052
vt 0.174096 0.860840
vt 0.198809 0.896611
vt 0.517146 0.030088
vt 0.571521 0.032750
vt 0.563752 0.091198
vt 0.837735 0.548001
vt 0.870688 0.514985
vt 0.847211 0.600429
vt 0.880165 0.600429
vt 0.995774 0.765955
vt 0.937785 0.728820
vt 0.995774 0.712358
vt 0.937785 0.689897
vt 0.476541 0.023855
vt 0.466096 0.091935
vt 0.427203 0.039189
vt 0.843197 0.667188
vt 0.876289 0.684491
vt 0.843197 0.705953
vt 0.876289 0.723255
vt 0.512702 0.153045
vt 0.458327 0.150383
vt 0.835827 0.548527
vt 0.868780 0.515513
vt 0.845304 0.600955
vt 0.878257 0.600955
vt 0.995775 0.765607
vt 0.937786 0.728473
vt 0.995775 0.712011
vt 0.937786 0.689550
vt 0.553307 0.159279
vt 0.602645 0.143944
vt 0.843196 0.666843
vt 0.876290 0.684145
vt 0.843196 0.705607
vt 0.876290 0.722909
vt 0.995774 0.799874
vt 0.948179 0.799874
vt 0.937786 0.650628
vt 0.948179 0.570898
vt 0.995775 0.604818
vt 0.995775 0.570898
vt 0.425131 0.354324
vt 0.401800 0.351473
vt 0.456255 0.243130
vt 0.432924 0.240280
vt 0.995775 0.799527
vt 0.948179 0.799527
vt 0.937785 0.650975
vt 0.948179 0.571245
vt 0.995774 0.605165
vt 0.995774 0.571245
vt 0.566849 0.256644
vt 0.590180 0.259494
vt 0.535725 0.367838
vt 0.559056 0.370688
vt 0.316068 0.311559
vt 0.331256 0.257296
vt 0.944900 0.922381
vt 0.921196 0.922381
vt 0.673189 0.049767
vt 0.688377 0.104029
vt 0.921196 0.420950
vt 0.944900 0.420950
vt 0.675912 0.299409
vt 0.660724 0.353671
vt 0.944900 0.922034
vt 0.921196 0.922034
vt 0.356659 0.133366
vt 0.341471 0.079104
vt 0.921196 0.421298
vt 0.944900 0.421298
vt 0.888470 0.350454
vt 0.902692 0.350454
vt 0.942585 0.031905
vt 0.991600 0.229585
vt 0.856258 0.031905
vt 0.948091 0.229585
vt 0.902692 0.979904
vt 0.888471 0.979904
vt 0.720982 0.057845
vt 0.728638 0.085193
vt 0.992612 0.294571
vt 0.949103 0.294571
vt 0.992612 0.227967
vt 0.949103 0.227967
vt 0.888471 0.350801
vt 0.902692 0.350801
vt 0.942300 0.029199
vt 0.991315 0.226879
vt 0.855973 0.029199
vt 0.947806 0.226879
vt 0.902692 0.979557
vt 0.888470 0.979557
vt 0.308865 0.125288
vt 0.301210 0.097941
vt 0.991315 0.295101
vt 0.947806 0.295101
vt 0.991315 0.228497
vt 0.947806 0.228497
vt 0.852711 0.611832
vt 0.885805 0.611832
vt 0.852711 0.612178
vt 0.885805 0.612178
vt 0.843197 0.744717
vt 0.876289 0.762020
vt 0.843196 0.744372
vt 0.876290 0.761674
vt 0.158636 0.629405
vt 0.234125 0.611832
vt 0.147749 0.688455
vt 0.257632 0.679372
vt 0.158636 0.629751
vt 0.234124 0.612178
vt 0.147749 0.688800
vt 0.257632 0.679717
vt 0.659847 0.623842
vt 0.650332 0.670602
vt 0.645687 0.548226
vt 0.655164 0.592789
vt 0.649795 0.703897
vt 0.650332 0.736847
vt 0.650332 0.670947
vt 0.659847 0.624189
vt 0.643778 0.548752
vt 0.653253 0.593315
vt 0.649795 0.703551
vt 0.650332 0.736501
vt 0.486778 0.611832
vt 0.477263 0.666843
vt 0.473351 0.548001
vt 0.482825 0.600429
vt 0.476459 0.705953
vt 0.477263 0.744717
vt 0.477263 0.667188
vt 0.486778 0.612178
vt 0.471442 0.548527
vt 0.480917 0.600955
vt 0.476459 0.705607
vt 0.477263 0.744372
vt 0.254650 0.548751
vt 0.231242 0.600429
vt 0.257632 0.718481
vt 0.252741 0.549277
vt 0.229332 0.600955
vt 0.257632 0.718136
vt 0.038001 0.692246
vt 0.083149 0.647324
vt 0.038001 0.691901
vt 0.083149 0.646978
vt 0.147749 0.708824
vt 0.147749 0.708478
vt 0.158636 0.754395
vt 0.083149 0.736823
vt 0.158636 0.754742
vt 0.083149 0.737168
vt 0.234124 0.772314
vt 0.234124 0.771968
s 0
usemtl Material.006
f 2/1/1 3/2/1 5/3/1
f 3/2/1 4/4/1 5/3/1
f 5/3/1 6/5/1 2/1/1
f 6/5/1 1/6/1 2/1/1
f 1/7/2 7/8/2 2/9/2
f 7/8/2 8/10/2 2/9/2
f 2/11/3 8/12/3 3/13/3
f 8/12/3 9/14/3 3/13/3
f 3/15/4 9/16/4 4/17/4
f 9/16/4 10/18/4 4/17/4
f 4/17/5 10/18/5 5/19/5
f 10/18/5 11/20/5 5/19/5
f 5/21/6 11/22/6 6/23/6
f 11/22/6 12/24/6 6/23/6
f 6/25/7 12/26/7 1/7/7
f 12/26/7 7/8/7 1/7/7
f 7/27/8 13/28/8 8/29/8
f 13/28/8 14/30/8 8/29/8
f 8/12/9 14/31/9 9/14/9
f 14/31/9 15/32/9 9/14/9
f 9/33/10 15/34/10 10/35/10
f 15/34/10 16/36/10 10/35/10
f 10/35/11 16/36/11 11/37/11
f 16/36/11 17/38/11 11/37/11
f 11/22/12 17/39/12 12/24/12
f 17/39/12 18/40/12 12/24/12
f 12/41/13 18/42/13 7/27/13
f 18/42/13 13/28/13 7/27/13
f 13/43/14 19/44/14 14/45/14
f 19/44/14 20/46/14 14/45/14
f 14/47/15 20/48/15 15/49/15
f 20/48/15 21/50/15 15/49/15
f 15/51/16 21/52/16 16/53/16
f 21/52/16 22/54/16 16/53/16
f 16/53/17 22/54/17 17/55/17
f 22/54/17 23/56/17 17/55/17
f 17/57/18 23/58/18 18/59/18
f 23/58/18 24/60/18 18/59/18
f 18/61/19 24/62/19 13/43/19
f 24/62/19 19/44/19 13/43/19
f 19/63/20 25/64/20 20/65/20
f 25/64/20 26/66/20 20/65/20
f 20/67/21 26/68/21 21/69/21
f 26/68/21 27/70/21 21/69/21
f 21/71/22 27/72/22 22/73/22
f 27/72/22 28/74/22 22/73/22
f 22/73/23 28/74/23 23/75/23
f 28/74/23 29/76/23 23/75/23
f 23/77/24 29/78/24 24/79/24
f 29/78/24 30/80/24 24/79/24
f 24/81/25 30/82/25 19/63/25
f 30/82/25 25/64/25 19/63/25
f 31/83/26 36/84/26 59/85/26
f 66/86/27 31/87/27 65/88/27
f 31/87/28 59/89/28 65/88/28
f 25/90/29 31/91/29 26/92/29
f 31/91/30 61/93/30 26/92/30
f 32/94/31 60/95/31 41/96/31
f 68/97/32 32/98/32 67/99/32
f 32/98/32 61/100/32 67/99/32
f 33/101/33 40/102/33 60/95/33
f 70/103/34 33/104/34 69/105/34
f 33/104/35 60/106/35 69/105/35
f 28/107/36 33/108/36 29/109/36
f 33/108/37 62/110/37 29/109/37
f 34/111/38 59/85/38 37/112/38
f 72/113/39 34/114/39 71/115/39
f 34/114/39 62/116/39 71/115/39
f 25/90/40 35/117/40 31/91/40
f 35/117/41 36/118/41 31/91/41
f 34/119/42 37/120/42 30/121/42
f 37/120/43 38/122/43 30/121/43
f 37/112/44 59/85/44 36/84/44
f 30/123/1 38/124/1 25/125/1
f 38/124/1 35/126/1 25/125/1
f 28/107/45 39/127/45 33/108/45
f 39/127/46 40/128/46 33/108/46
f 32/129/47 41/130/47 27/131/47
f 41/130/48 42/132/48 27/131/48
f 41/96/44 60/95/44 40/102/44
f 27/133/1 42/134/1 28/135/1
f 42/134/1 39/136/1 28/135/1
f 38/124/49 43/137/49 35/126/49
f 43/137/49 44/138/49 35/126/49
f 35/117/50 44/139/50 36/118/50
f 44/139/50 45/140/50 36/118/50
f 36/84/51 45/141/51 37/112/51
f 45/141/51 46/142/51 37/112/51
f 37/120/52 46/143/52 38/122/52
f 46/143/52 43/144/52 38/122/52
f 42/134/53 47/145/53 39/136/53
f 47/145/53 48/146/53 39/136/53
f 39/127/54 48/147/54 40/128/54
f 48/147/54 49/148/54 40/128/54
f 40/102/55 49/149/55 41/96/55
f 49/149/55 50/150/55 41/96/55
f 41/130/56 50/151/56 42/132/56
f 50/151/56 47/152/56 42/132/56
f 46/143/57 51/153/57 43/144/57
f 51/153/57 52/154/57 43/144/57
f 43/155/58 52/156/58 44/157/58
f 52/156/59 53/158/59 44/157/59
f 44/139/60 53/159/60 45/140/60
f 53/159/60 54/160/60 45/140/60
f 45/141/61 54/161/61 46/142/61
f 54/161/61 51/162/61 46/142/61
f 51/163/19 54/164/19 52/165/19
f 54/164/19 53/166/19 52/165/19
f 50/151/62 55/167/62 47/152/62
f 55/167/62 56/168/62 47/152/62
f 47/169/63 56/170/63 48/171/63
f 56/170/64 57/172/64 48/171/64
f 48/147/65 57/173/65 49/148/65
f 57/173/65 58/174/65 49/148/65
f 49/149/66 58/175/66 50/150/66
f 58/175/66 55/176/66 50/150/66
f 55/177/16 58/178/16 56/179/16
f 58/178/16 57/180/16 56/179/16
f 65/181/67 59/182/67 72/113/67
f 59/182/68 34/114/68 72/113/68
f 69/183/69 60/184/69 68/97/69
f 60/184/70 32/98/70 68/97/70
f 67/99/32 61/100/32 66/185/32
f 61/100/71 31/186/71 66/185/71
f 26/92/72 61/93/72 27/131/72
f 61/93/40 32/129/40 27/131/40
f 71/115/39 62/116/39 70/187/39
f 62/116/73 33/188/73 70/187/73
f 29/109/74 62/110/74 30/121/74
f 62/110/45 34/119/45 30/121/45
f 97/189/75 63/190/75 100/191/75
f 63/190/76 94/192/76 100/191/76
f 96/193/77 64/194/77 98/195/77
f 64/194/78 92/196/78 98/195/78
f 73/197/79 65/181/79 80/198/79
f 65/181/80 72/113/80 80/198/80
f 74/199/81 66/86/81 73/200/81
f 66/86/82 65/88/82 73/200/82
f 75/201/83 67/99/83 74/202/83
f 67/99/84 66/185/84 74/202/84
f 76/203/85 68/97/85 75/201/85
f 68/97/84 67/99/84 75/201/84
f 77/204/86 69/183/86 76/203/86
f 69/183/87 68/97/87 76/203/87
f 78/205/88 70/103/88 77/206/88
f 70/103/89 69/105/89 77/206/89
f 79/207/90 71/115/90 78/208/90
f 71/115/91 70/187/91 78/208/91
f 80/198/92 72/113/92 79/207/92
f 72/113/91 71/115/91 79/207/91
f 81/209/93 73/197/93 88/210/93
f 73/197/94 80/198/94 88/210/94
f 82/211/95 74/199/95 81/212/95
f 74/199/96 73/200/96 81/212/96
f 83/213/97 75/201/97 82/214/97
f 75/201/98 74/202/98 82/214/98
f 84/215/99 76/203/99 83/213/99
f 76/203/99 75/201/99 83/213/99
f 85/216/100 77/204/100 84/215/100
f 77/204/101 76/203/101 84/215/101
f 86/217/102 78/205/102 85/218/102
f 78/205/103 77/206/103 85/218/103
f 87/219/104 79/207/104 86/220/104
f 79/207/105 78/208/105 86/220/105
f 88/210/106 80/198/106 87/219/106
f 80/198/106 79/207/106 87/219/106
f 63/190/107 81/209/107 94/192/107
f 81/209/108 88/210/108 94/192/108
f 93/221/109 82/211/109 63/222/109
f 82/211/110 81/212/110 63/222/110
f 82/214/111 93/223/111 83/213/111
f 83/213/112 93/223/112 92/196/112
f 84/215/113 83/213/113 92/196/113
f 64/194/114 85/216/114 92/196/114
f 85/216/115 84/215/115 92/196/115
f 95/224/116 86/217/116 64/225/116
f 86/217/117 85/218/117 64/225/117
f 86/220/118 95/226/118 87/219/118
f 87/219/119 95/226/119 94/192/119
f 88/210/120 87/219/120 94/192/120
f 98/195/121 89/227/121 96/193/121
f 89/227/48 90/228/48 96/193/48
f 100/191/122 89/229/122 97/189/122
f 89/229/43 91/230/43 97/189/43
f 89/227/123 98/195/123 99/231/123
f 89/229/124 100/191/124 101/232/124
f 96/233/125 90/234/125 101/232/125
f 90/234/126 89/229/126 101/232/126
f 97/235/127 91/236/127 99/231/127
f 91/236/128 89/227/128 99/231/128
f 98/195/129 92/196/129 99/231/129
f 92/196/129 93/223/129 99/231/129
f 99/231/130 93/223/130 97/235/130
f 93/223/131 63/237/131 97/235/131
f 100/191/132 94/192/132 101/232/132
f 94/192/132 95/226/132 101/232/132
f 101/232/133 95/226/133 96/233/133
f 95/226/134 64/238/134 96/233/134
